HIERARCHY
ROOT Hips
{
	OFFSET -1.602300 6.242603 43.997101
	CHANNELS 6 Xposition Yposition Zposition Zrotation Xrotation Yrotation
	JOINT Chest
	{
		OFFSET -0.204900 1.598101 7.917301
		CHANNELS 6 Xposition Yposition Zposition Zrotation Xrotation Yrotation
		JOINT Chest2
		{
			OFFSET 0.000000 0.000000 3.404099
			CHANNELS 6 Xposition Yposition Zposition Zrotation Xrotation Yrotation
			JOINT Neck
			{
				OFFSET 0.000000 0.000000 7.928600
				CHANNELS 6 Xposition Yposition Zposition Zrotation Xrotation Yrotation
				JOINT Head
				{
					OFFSET 0.000000 0.000000 2.173897
					CHANNELS 6 Xposition Yposition Zposition Zrotation Xrotation Yrotation
					End Site
					{
						OFFSET 0.000000 0.000001 10.404503
					}
				}
			}
			JOINT LeftCollar
			{
				OFFSET 2.833800 -1.396299 4.843300
				CHANNELS 6 Xposition Yposition Zposition Zrotation Xrotation Yrotation
				JOINT LeftShoulder
				{
					OFFSET 4.363600 0.000000 0.000000
					CHANNELS 6 Xposition Yposition Zposition Zrotation Xrotation Yrotation
					JOINT LeftElbow
					{
						OFFSET 0.000000 -0.000001 -10.306900
						CHANNELS 6 Xposition Yposition Zposition Zrotation Xrotation Yrotation
						JOINT LeftWrist
						{
							OFFSET 0.000000 -0.000001 -12.404900
							CHANNELS 6 Xposition Yposition Zposition Zrotation Xrotation Yrotation
							End Site
							{
								OFFSET 0.000000 0.000000 -2.173901
							}
						}
					}
				}
			}
			JOINT RightCollar
			{
				OFFSET -2.354800 -1.897200 5.063099
				CHANNELS 6 Xposition Yposition Zposition Zrotation Xrotation Yrotation
				JOINT RightShoulder
				{
					OFFSET -4.375800 0.000000 0.000000
					CHANNELS 6 Xposition Yposition Zposition Zrotation Xrotation Yrotation
					JOINT RightElbow
					{
						OFFSET 0.000000 -0.000001 -10.005001
						CHANNELS 6 Xposition Yposition Zposition Zrotation Xrotation Yrotation
						JOINT RightWrist
						{
							OFFSET 0.000000 -0.000001 -13.174900
							CHANNELS 6 Xposition Yposition Zposition Zrotation Xrotation Yrotation
							End Site
							{
								OFFSET 0.000000 0.000000 -2.173901
							}
						}
					}
				}
			}
		}
	}
	JOINT LeftHip
	{
		OFFSET 2.240600 0.386800 -2.614101
		CHANNELS 6 Xposition Yposition Zposition Zrotation Xrotation Yrotation
		JOINT LeftKnee
		{
			OFFSET 0.000000 -0.000001 -18.592899
			CHANNELS 6 Xposition Yposition Zposition Zrotation Xrotation Yrotation
			JOINT LeftAnkle
			{
				OFFSET 0.000000 -0.000001 -18.765800
				CHANNELS 6 Xposition Yposition Zposition Zrotation Xrotation Yrotation
				End Site
				{
					OFFSET 0.000000 -8.655000 0.000000
				}
			}
		}
	}
	JOINT RightHip
	{
		OFFSET -2.014900 -0.220900 -2.615898
		CHANNELS 6 Xposition Yposition Zposition Zrotation Xrotation Yrotation
		JOINT RightKnee
		{
			OFFSET 0.000000 -0.000001 -18.633900
			CHANNELS 6 Xposition Yposition Zposition Zrotation Xrotation Yrotation
			JOINT RightAnkle
			{
				OFFSET 0.000000 -0.000001 -18.285101
				CHANNELS 6 Xposition Yposition Zposition Zrotation Xrotation Yrotation
				End Site
				{
					OFFSET 0.000000 -7.524500 0.000000
				}
			}
		}
	}
}
MOTION
Frames: 9
Frame Time: 0.041667
6.716601 9.103306 42.023605 2.190310 0.945178 -0.175831 -0.204902 1.598101 7.917308 -2.041799 0.710849 -1.219164 0.000000 0.000000 3.404107 5.949732 -4.818706 0.198434 -0.000000 -0.000001 7.928606 -1.484928 2.388991 1.144710 0.000001 -0.000000 2.173900 -0.619324 -1.931321 0.538344 2.833802 -1.396302 4.843307 -5.491658 5.774583 5.458633 4.363599 0.000009 0.000005 -53.894639 -9.745153 -52.573107 0.000004 0.000008 -10.306894 -166.787578 -132.224170 -144.266928 0.000004 -0.000001 -12.404894 -129.395297 171.050859 -160.291822 -2.354800 -1.897200 5.063108 16.449232 8.907256 -3.481063 -4.375794 0.000005 0.000004 36.262219 -24.841188 59.048836 -0.000002 0.000007 -10.005002 -66.346675 -19.238273 -87.200103 -0.000003 0.000002 -13.174896 127.865335 0.106649 58.297283 2.240599 0.386800 -2.614099 3.192303 -14.310375 -2.396639 -0.000002 0.000002 -18.592892 -10.738931 34.495587 23.964528 0.000000 0.000000 -18.765802 16.771794 -1.264363 6.508783 -2.014897 -0.220897 -2.615899 -83.439073 -37.898268 -42.130912 -0.000003 0.000005 -18.633890 116.346221 15.386051 -123.062442 0.000010 -0.000007 -18.285089 -29.805535 17.611020 -109.779718
6.712598 9.117703 42.005508 2.202923 1.000351 -0.197572 -0.204900 1.598096 7.917305 -2.055944 0.739778 -1.188636 0.000000 -0.000001 3.404100 5.973027 -4.871313 0.195589 -0.000001 0.000000 7.928600 -1.514468 2.341198 1.160722 -0.000001 0.000001 2.173909 -0.610815 -1.884257 0.531450 2.833800 -1.396302 4.843303 -5.457645 5.729671 5.551568 4.363601 0.000010 0.000004 -53.983831 -9.607713 -52.645059 -0.000001 0.000005 -10.306901 -166.770202 -132.202273 -144.299166 0.000005 0.000005 -12.404894 -129.355518 171.035887 -160.274528 -2.354803 -1.897201 5.063104 16.479385 8.879538 -3.540572 -4.375797 0.000009 0.000000 36.310799 -24.772097 59.146406 -0.000007 0.000015 -10.005005 -66.422032 -19.234953 -87.195909 -0.000003 0.000004 -13.174899 127.825392 0.091649 58.286218 2.240599 0.386797 -2.614105 3.427079 -14.508193 -2.351899 -0.000000 0.000000 -18.592897 -10.600522 34.806166 23.877832 -0.000001 -0.000002 -18.765800 16.451397 -1.228041 6.270861 -2.014895 -0.220899 -2.615894 -83.517279 -37.904804 -42.287084 0.000001 0.000005 -18.633884 116.429208 15.651660 -123.126891 0.000009 -0.000006 -18.285088 -29.548191 17.624320 -109.693050
6.705999 9.134604 41.985310 2.234569 1.078237 -0.204865 -0.204900 1.598097 7.917309 -2.090875 0.748127 -1.155886 0.000000 -0.000001 3.404101 5.987125 -4.918026 0.190975 -0.000000 0.000001 7.928604 -1.546776 2.273892 1.158797 -0.000000 -0.000001 2.173897 -0.591654 -1.828402 0.525375 2.833801 -1.396300 4.843305 -5.404893 5.675862 5.577236 4.363599 0.000004 0.000001 -54.045620 -9.538016 -52.680095 0.000003 0.000002 -10.306904 -166.717855 -132.205019 -144.271545 0.000007 0.000001 -12.404896 -129.390380 171.023866 -160.249188 -2.354801 -1.897201 5.063104 16.513719 8.842665 -3.583355 -4.375795 0.000005 0.000005 36.354003 -24.760670 59.216026 -0.000002 0.000014 -10.005002 -66.453567 -19.160706 -87.169654 -0.000008 0.000002 -13.174897 127.861469 0.068954 58.244220 2.240599 0.386799 -2.614091 3.650311 -14.741715 -2.313383 -0.000000 -0.000000 -18.592899 -10.429003 35.139510 23.760836 -0.000001 -0.000003 -18.765800 16.102857 -1.180613 6.019580 -2.014900 -0.220900 -2.615895 -83.642326 -37.894149 -42.488148 -0.000003 0.000007 -18.633884 116.423033 15.741366 -123.145019 0.000013 -0.000005 -18.285089 -29.502695 17.609778 -109.687483
6.697199 9.154303 41.963707 2.299289 1.177624 -0.202672 -0.204900 1.598100 7.917306 -2.160562 0.733920 -1.115642 0.000001 0.000001 3.404108 6.041920 -4.904519 0.172419 -0.000001 0.000000 7.928601 -1.591690 2.150566 1.114287 -0.000001 0.000000 2.173905 -0.600553 -1.772341 0.558782 2.833801 -1.396300 4.843297 -5.393870 5.562895 5.539466 4.363600 0.000003 0.000003 -54.073713 -9.539788 -52.675116 0.000005 0.000001 -10.306900 -166.611441 -132.242189 -144.174187 0.000004 0.000003 -12.404892 -129.498952 171.019153 -160.235855 -2.354802 -1.897199 5.063102 16.484762 8.746348 -3.579134 -4.375794 0.000005 -0.000000 36.404785 -24.785910 59.252110 -0.000009 0.000012 -10.005001 -66.456668 -19.078962 -87.124643 -0.000007 0.000005 -13.174903 127.925386 0.039090 58.179080 2.240599 0.386803 -2.614097 3.853062 -15.009040 -2.276223 -0.000001 0.000001 -18.592897 -10.259192 35.487426 23.630771 -0.000000 -0.000001 -18.765800 15.753049 -1.092767 5.710065 -2.014899 -0.220899 -2.615894 -83.884722 -37.842919 -42.768363 -0.000002 0.000005 -18.633888 116.366397 15.638311 -123.110103 0.000008 -0.000007 -18.285089 -29.666616 17.570716 -109.753675
6.686599 9.176406 41.942303 2.420217 1.292310 -0.174092 -0.204900 1.598099 7.917304 -2.285615 0.686254 -1.107843 -0.000001 0.000000 3.404102 6.047665 -4.905616 0.170924 -0.000001 0.000001 7.928601 -1.554215 2.099345 1.026737 0.000000 0.000001 2.173907 -0.533844 -1.620042 0.146549 2.833800 -1.396300 4.843302 -5.365632 5.492491 5.431654 4.363597 0.000004 -0.000000 -54.050156 -9.610035 -52.632068 0.000000 0.000006 -10.306897 -166.548562 -132.280342 -144.091597 0.000003 -0.000000 -12.404894 -129.590586 171.043605 -160.244776 -2.354802 -1.897199 5.063104 16.499210 8.689813 -3.539777 -4.375796 0.000004 -0.000002 36.427038 -24.901265 59.225718 -0.000007 0.000008 -10.005002 -66.403673 -19.009506 -87.062161 -0.000008 0.000011 -13.174896 128.007417 0.008588 58.109330 2.240601 0.386800 -2.614098 4.042400 -15.311322 -2.251541 -0.000001 0.000002 -18.592901 -10.164741 35.848569 23.511891 0.000000 -0.000002 -18.765802 15.412942 -1.052670 5.478877 -2.014895 -0.220899 -2.615900 -84.216116 -37.752972 -43.091264 -0.000003 0.000005 -18.633888 116.225477 15.354393 -123.017799 0.000008 -0.000006 -18.285089 -30.040422 17.505532 -109.867056
6.674099 9.201604 41.919903 2.615336 1.424634 -0.130415 -0.204900 1.598103 7.917312 -2.484740 0.610934 -1.117410 -0.000000 0.000000 3.404110 6.052005 -4.877879 0.171959 -0.000000 -0.000002 7.928604 -1.489573 2.066257 0.911238 0.000000 0.000001 2.173902 -0.600658 -1.614773 0.216693 2.833800 -1.396304 4.843305 -5.359276 5.409292 5.296682 4.363598 0.000008 0.000001 -53.997775 -9.711160 -52.574903 -0.000006 0.000009 -10.306898 -166.497035 -132.327006 -144.013337 0.000005 0.000000 -12.404892 -129.683750 171.054192 -160.262507 -2.354801 -1.897203 5.063107 16.502441 8.617830 -3.465246 -4.375795 0.000006 -0.000003 36.437806 -25.063627 59.164027 -0.000005 0.000011 -10.005003 -66.308542 -18.967804 -86.982985 -0.000005 0.000002 -13.174898 128.082494 -0.020742 58.060112 2.240599 0.386803 -2.614096 4.202791 -15.651775 -2.230292 -0.000000 0.000002 -18.592903 -10.149752 36.224475 23.409468 0.000000 -0.000001 -18.765800 15.088077 -1.027856 5.262215 -2.014896 -0.220893 -2.615897 -84.725116 -37.603388 -43.501837 -0.000002 0.000003 -18.633886 116.098668 14.946686 -122.895416 0.000006 -0.000008 -18.285089 -30.559062 17.429109 -110.012231
6.658800 9.229402 41.898407 2.852885 1.568572 -0.067748 -0.204901 1.598101 7.917308 -2.726280 0.513537 -1.146935 0.000001 0.000002 3.404106 6.049624 -4.831611 0.174762 0.000000 -0.000000 7.928604 -1.386361 2.052947 0.757318 0.000000 -0.000000 2.173896 -0.698174 -1.626616 0.301276 2.833801 -1.396301 4.843310 -5.332043 5.316774 5.139117 4.363599 0.000007 -0.000001 -53.976711 -9.809852 -52.511768 -0.000003 0.000008 -10.306900 -166.489003 -132.363902 -143.981276 0.000004 0.000001 -12.404902 -129.725988 171.046201 -160.273872 -2.354801 -1.897201 5.063106 16.488119 8.538754 -3.348292 -4.375795 0.000005 0.000002 36.441696 -25.271476 59.055967 -0.000003 0.000012 -10.005005 -66.177908 -18.957817 -86.893175 -0.000006 0.000006 -13.174892 128.146110 -0.050792 58.042347 2.240599 0.386802 -2.614099 4.374610 -16.026250 -2.214326 -0.000001 0.000001 -18.592897 -10.388536 36.579891 23.413231 0.000001 -0.000003 -18.765797 14.892476 -1.052837 5.130942 -2.014898 -0.220896 -2.615895 -85.439963 -37.345927 -44.028772 0.000000 0.000007 -18.633890 116.148487 14.606006 -122.799001 0.000008 -0.000006 -18.285088 -30.997004 17.362906 -110.110805
6.645399 9.256303 41.877007 3.066880 1.700984 -0.017849 -0.204901 1.598103 7.917307 -2.943537 0.416545 -1.172534 -0.000000 0.000001 3.404097 6.044726 -4.793959 0.176770 -0.000000 0.000002 7.928595 -1.287829 2.086305 0.615453 0.000001 -0.000001 2.173909 -0.797415 -1.649800 0.388011 2.833802 -1.396297 4.843298 -5.315811 5.245856 5.042118 4.363597 0.000009 -0.000002 -53.956503 -9.864803 -52.484198 0.000005 0.000004 -10.306896 -166.533864 -132.379462 -143.991780 0.000005 0.000004 -12.404894 -129.720018 171.014741 -160.271441 -2.354800 -1.897198 5.063100 16.480664 8.476779 -3.258278 -4.375794 0.000007 0.000000 36.442181 -25.457845 58.978076 -0.000007 0.000014 -10.005000 -66.044193 -18.864566 -86.811110 -0.000006 0.000002 -13.174899 128.296689 -0.075142 58.054839 2.240600 0.386804 -2.614097 4.042717 -16.249807 -2.323557 -0.000001 0.000001 -18.592896 -10.639358 36.633252 23.660834 0.000001 -0.000002 -18.765799 15.105477 -1.132546 5.235167 -2.014900 -0.220893 -2.615891 -86.540553 -36.879371 -44.770206 -0.000007 0.000009 -18.633888 116.660956 14.364048 -122.781325 0.000006 -0.000006 -18.285088 -31.261325 17.326218 -110.137627
6.632699 9.282104 41.855511 3.246667 1.803770 0.029543 -0.204901 1.598102 7.917308 -3.125716 0.348819 -1.205459 -0.000000 0.000000 3.404099 6.035976 -4.760712 0.175925 -0.000000 -0.000001 7.928598 -1.257499 2.129937 0.554411 0.000001 0.000001 2.173908 -0.839022 -1.689107 0.421822 2.833802 -1.396302 4.843299 -5.267976 5.172596 5.019758 4.363599 0.000003 0.000001 -53.972302 -9.857671 -52.482211 0.000003 0.000004 -10.306902 -166.565515 -132.382303 -144.008815 0.000003 -0.000000 -12.404887 -129.719322 170.954471 -160.255718 -2.354801 -1.897202 5.063100 16.482671 8.429692 -3.155069 -4.375796 0.000007 0.000000 36.431003 -25.648414 58.912888 -0.000004 0.000010 -10.005004 -65.907193 -18.710308 -86.735172 -0.000006 0.000006 -13.174898 128.492182 -0.093317 58.100881 2.240599 0.386803 -2.614098 4.169144 -16.548976 -2.311256 -0.000000 0.000000 -18.592897 -11.361258 36.810396 23.963948 -0.000000 0.000000 -18.765800 15.330845 -1.271920 5.355026 -2.014899 -0.220893 -2.615891 -87.180097 -36.614814 -45.223140 -0.000002 0.000008 -18.633883 116.887240 14.320309 -122.770697 0.000013 -0.000009 -18.285088 -31.363853 17.308249 -110.097670
